<svg xmlns="http://www.w3.org/2000/svg" viewBox="0 0 316.2 60.4"><defs><style>.cls-1{fill:#f1f1f1;}.cls-2{fill:none;stroke:#f1f1f1;stroke-miterlimit:10;stroke-width:0.8px;}.cls-3{fill:#ff2291;}</style></defs><g id="Layer_2" data-name="Layer 2"><g id="文字要素_スクロール_" data-name="文字要素（スクロール）"><path class="cls-1" d="M15.82,20.08a3.55,3.55,0,0,1-.7.43,3.44,3.44,0,0,1-.82.28,4.88,4.88,0,0,1-1,.09,3.78,3.78,0,0,1-1.56-.31,3.68,3.68,0,0,1-1.24-.84,3.76,3.76,0,0,1-.82-1.26,4.18,4.18,0,0,1,0-3.11,3.83,3.83,0,0,1,.81-1.27,4.09,4.09,0,0,1,1.26-.86,4,4,0,0,1,1.61-.31,4.75,4.75,0,0,1,1,.09,4.31,4.31,0,0,1,.79.24,4.43,4.43,0,0,1,.68.38,5.37,5.37,0,0,1,.58.49l-.87,1a4.31,4.31,0,0,0-1-.7,2.63,2.63,0,0,0-1.18-.26,2.29,2.29,0,0,0-1,.22,2.27,2.27,0,0,0-.81.58,2.44,2.44,0,0,0-.53.86A3.11,3.11,0,0,0,11,18a2.53,2.53,0,0,0,.53.88,2.27,2.27,0,0,0,.81.58,2.29,2.29,0,0,0,1,.22,2.52,2.52,0,0,0,1.21-.27,4.67,4.67,0,0,0,1-.73l.86.88A4.08,4.08,0,0,1,15.82,20.08Z"/><path class="cls-1" d="M23.88,13.05h1.46l-3.2,7.76H21l-3.2-7.76h1.5L21.57,19Z"/><path class="cls-1" d="M70.17,6.9h-10V8.12h9V10h-9v1.28H71v2.16H46.59V11.32H57.46V10H48.54V8.12h8.92V6.9h-10V4.71h10V3.21h2.67v1.5h10ZM68,14.57V25.15c0,1.66-.57,2.52-2.34,2.52H61.54l-.6-2.52h3.8c.44,0,.59-.21.59-.49V23.28H52.1v4.39H49.47V14.57Zm-15.91,2V18H65.33V16.57Zm0,3.33v1.45H65.33V19.9Z"/><path class="cls-1" d="M90.29,3.18V24.24h7.13V7.65h2.81V27H77.63V7.65h2.78V24.24h7.08V3.18Z"/><path class="cls-1" d="M131.19,8.22H120.45v3.49h9.39v2.52H108.31V11.71h9.36V8.22H107V5.65h10.66V3.21h2.78V5.65h10.74Zm-2.7,18.83h-18.8V16.67h18.8Zm-2.78-7.85H112.42v5.35h13.29Z"/><path class="cls-1" d="M147.31,11.11a13.35,13.35,0,0,0-.73-1.69c-1.61.26-6.21.81-9.43,1L137,8,138.73,8a26.41,26.41,0,0,0,1.8-4.78l2.57.34a32.11,32.11,0,0,1-1.82,4.37c.29,0,2.83-.13,4.29-.32-.6-1.06-1-1.63-1.4-2.26l2.1-1.17a23.06,23.06,0,0,1,3.46,5.72Zm-9.2.65h10V25.44a2.05,2.05,0,0,1-2,2.13h-3.36L142.37,25h2.68c.34,0,.55-.1.55-.47v-2h-5v5h-2.47Zm2.47,2.31v2.11h5V14.07Zm0,4.16v2.24h5V18.23Zm12.76-15V6.79A30.64,30.64,0,0,0,159.45,4l1.41,2.1a34.29,34.29,0,0,1-7.52,3v2.42c0,.2,0,.59.71.59h3.58c.73,0,1.15,0,1.2-3l2.5.75c-.16,3.46-.76,4.66-2.84,4.66h-5.43a2.16,2.16,0,0,1-2.47-2.21V3.18Zm-2.65,12.19h2.65v3.46a32.69,32.69,0,0,0,5.83-2.94l1.48,2.19a36.73,36.73,0,0,1-7.31,3.12v2.91c0,.62.37.78.73.78h3.56c.86,0,.91,0,1.2-3.46l2.5.7c-.42,4.32-.73,5.26-3.23,5.26H153a2.1,2.1,0,0,1-2.26-2.4Z"/><circle class="cls-2" cx="16.75" cy="16.4" r="16"/><path class="cls-1" d="M1.71,54.17V58.3H0V48.5H1.71v4.07H6.42V48.49H8.12v9.8H6.42V54.16Z"/><path class="cls-1" d="M11.17,49.76V48.15H13v1.61Zm.08,8.53V50.9H13v7.39Z"/><path class="cls-1" d="M17.91,56a.91.91,0,0,0,.24.71.93.93,0,0,0,.67.22,2.39,2.39,0,0,0,1.05-.25V58a2.71,2.71,0,0,1-.68.28,3,3,0,0,1-.84.1,3.32,3.32,0,0,1-.86-.11,1.8,1.8,0,0,1-.68-.37,1.5,1.5,0,0,1-.45-.66,3.32,3.32,0,0,1-.16-1v-3.9h-.94V50.89h.94v-2h1.71v2h2v1.44h-2Z"/><path class="cls-1" d="M29.47,56.08a3.83,3.83,0,0,1-.83,1.22,3.93,3.93,0,0,1-1.25.84,4.08,4.08,0,0,1-1.58.31,4,4,0,0,1-1.56-.3,3.83,3.83,0,0,1-2.07-2,3.93,3.93,0,0,1-.29-1.5,3.79,3.79,0,0,1,.3-1.5A3.84,3.84,0,0,1,23,51.88a4.12,4.12,0,0,1,4.4-.85,3.8,3.8,0,0,1,1.24.83,3.75,3.75,0,0,1,.82,1.22,3.9,3.9,0,0,1,0,3Zm-1.58-2.39a2.39,2.39,0,0,0-.46-.77,2.09,2.09,0,0,0-1.63-.7,2.12,2.12,0,0,0-.91.19,2.07,2.07,0,0,0-.7.51,2.16,2.16,0,0,0-.44.75,2.68,2.68,0,0,0,0,1.85,2.37,2.37,0,0,0,.47.76,2.43,2.43,0,0,0,.71.51,2.2,2.2,0,0,0,.9.19,2.26,2.26,0,0,0,.92-.19,2.15,2.15,0,0,0,.7-.51,2.21,2.21,0,0,0,.45-.75,2.77,2.77,0,0,0,.15-.92A2.51,2.51,0,0,0,27.89,53.69Z"/><path class="cls-1" d="M33.9,58.27H32.19V50.88H33.9v1.67a3.26,3.26,0,0,1,1-1.35,2.4,2.4,0,0,1,1.62-.46v1.79h-.09a2.73,2.73,0,0,0-1,.18,2.24,2.24,0,0,0-.8.55,2.36,2.36,0,0,0-.52.92,4.12,4.12,0,0,0-.18,1.28Z"/><path class="cls-1" d="M38.7,49.74V48.13h1.83v1.61Zm.07,8.53V50.88h1.71v7.39Z"/><path class="cls-1" d="M56.41,57.49a7.08,7.08,0,0,1-.95.49,6.13,6.13,0,0,1-1.1.33,6.26,6.26,0,0,1-1.23.12A5.37,5.37,0,0,1,51,58,4.7,4.7,0,0,1,49.43,57a4.76,4.76,0,0,1-1-1.6,5.31,5.31,0,0,1-.37-2,5.14,5.14,0,0,1,.37-2,4.9,4.9,0,0,1,1-1.62,5,5,0,0,1,3.64-1.51,7,7,0,0,1,1.17.09,5.5,5.5,0,0,1,1,.26,5.12,5.12,0,0,1,.85.41,6.43,6.43,0,0,1,.78.57l-1.1,1.3a4.73,4.73,0,0,0-.57-.43,3.6,3.6,0,0,0-.61-.33,3.91,3.91,0,0,0-.71-.21,4.46,4.46,0,0,0-.85-.08,2.76,2.76,0,0,0-1.25.28,3,3,0,0,0-1,.75A3.66,3.66,0,0,0,50.09,52a3.75,3.75,0,0,0-.25,1.34,4.25,4.25,0,0,0,.24,1.41,3.29,3.29,0,0,0,.68,1.11,3.39,3.39,0,0,0,1.05.74,3.56,3.56,0,0,0,1.37.26,4.28,4.28,0,0,0,1.31-.2,3.6,3.6,0,0,0,1-.55V54.28H53v-1.5h4.17V56.9A8.73,8.73,0,0,1,56.41,57.49Z"/><path class="cls-1" d="M67.13,56.05a3.83,3.83,0,0,1-.83,1.22,3.77,3.77,0,0,1-1.25.84,4.08,4.08,0,0,1-1.58.31,4,4,0,0,1-1.56-.3,3.83,3.83,0,0,1-2.07-2,3.92,3.92,0,0,1-.29-1.49,3.88,3.88,0,0,1,1.12-2.74,4.12,4.12,0,0,1,4.4-.85,3.8,3.8,0,0,1,1.24.83,3.75,3.75,0,0,1,.82,1.22,3.9,3.9,0,0,1,0,3Zm-1.58-2.39a2.39,2.39,0,0,0-.46-.77,2.11,2.11,0,0,0-.71-.51,2.3,2.3,0,0,0-1.83,0,2.07,2.07,0,0,0-.7.51,2.16,2.16,0,0,0-.44.75,2.73,2.73,0,0,0-.16.92,2.69,2.69,0,0,0,.17.93,2.37,2.37,0,0,0,.47.76,2.43,2.43,0,0,0,.71.51,2.2,2.2,0,0,0,.9.19,2.26,2.26,0,0,0,.92-.19,2.15,2.15,0,0,0,.7-.51,2.21,2.21,0,0,0,.45-.75,2.77,2.77,0,0,0,.15-.92A2.35,2.35,0,0,0,65.55,53.66Z"/><path class="cls-1" d="M71.91,55.93a.92.92,0,0,0,.24.71,1,1,0,0,0,.67.22,2.27,2.27,0,0,0,1.05-.26V58a2.71,2.71,0,0,1-.68.28,3.12,3.12,0,0,1-.84.1,3.32,3.32,0,0,1-.86-.11,1.84,1.84,0,0,1-.69-.37,1.63,1.63,0,0,1-.44-.66,2.82,2.82,0,0,1-.16-1V52.29h-.94V50.85h.94v-2h1.71v2h2v1.44h-2Z"/><path class="cls-1" d="M83.47,56a3.93,3.93,0,0,1-2.08,2.06,4.28,4.28,0,0,1-1.58.31,4,4,0,0,1-1.56-.3A3.85,3.85,0,0,1,77,57.28a3.91,3.91,0,0,1-.82-1.22,3.7,3.7,0,0,1-.29-1.49,3.62,3.62,0,0,1,.3-1.5,3.91,3.91,0,0,1,3.64-2.38,4.12,4.12,0,0,1,1.58.3,3.8,3.8,0,0,1,1.24.83A3.64,3.64,0,0,1,83.47,53a3.9,3.9,0,0,1,0,3Zm-1.58-2.4a2.34,2.34,0,0,0-.46-.76,2.22,2.22,0,0,0-.72-.52,2.06,2.06,0,0,0-.91-.18,2.27,2.27,0,0,0-.91.18,2.24,2.24,0,0,0-.7.52,2.16,2.16,0,0,0-.44.75,2.49,2.49,0,0,0-.16.91,2.6,2.6,0,0,0,.17.93,2.24,2.24,0,0,0,1.18,1.28,2.2,2.2,0,0,0,.9.19,2.26,2.26,0,0,0,.92-.19,2.14,2.14,0,0,0,.7-.52,2,2,0,0,0,.45-.75,2.71,2.71,0,0,0,.15-.91A2.6,2.6,0,0,0,81.89,53.64Z"/><path class="cls-1" d="M87.9,58.23H86.19V48h1.7v4a3.92,3.92,0,0,1,.39-.5,2.33,2.33,0,0,1,.51-.42,2.7,2.7,0,0,1,.62-.29,2.67,2.67,0,0,1,.78-.11,2.47,2.47,0,0,1,1.94.77,3,3,0,0,1,.69,2.07v4.71H91.12V54a2,2,0,0,0-.41-1.34,1.47,1.47,0,0,0-1.16-.46,1.56,1.56,0,0,0-1.19.48,1.86,1.86,0,0,0-.46,1.35Z"/><path class="cls-1" d="M106.85,47l-6.32,13H99.06l6.32-13Z"/><path class="cls-1" d="M121.3,57.36a5.75,5.75,0,0,1-.89.55,4.89,4.89,0,0,1-1,.35,6.13,6.13,0,0,1-1.26.12,4.77,4.77,0,0,1-2-.4,4.83,4.83,0,0,1-1.58-1.06,5.32,5.32,0,0,1-1-5.57,4.84,4.84,0,0,1,1-1.62,5,5,0,0,1,1.59-1.09,5.05,5.05,0,0,1,2-.4,6.62,6.62,0,0,1,1.23.11,5.08,5.08,0,0,1,1,.32,4.43,4.43,0,0,1,.85.48,6.15,6.15,0,0,1,.74.61L120.91,51a5.37,5.37,0,0,0-1.25-.88,3.19,3.19,0,0,0-1.5-.34,2.93,2.93,0,0,0-1.29.28,3.19,3.19,0,0,0-1,.74,3.32,3.32,0,0,0-.67,1.1,3.78,3.78,0,0,0-.24,1.36,3.81,3.81,0,0,0,.24,1.36,3.26,3.26,0,0,0,.67,1.11,3.18,3.18,0,0,0,1,.75,3.12,3.12,0,0,0,1.3.27,3.24,3.24,0,0,0,1.54-.34,6.13,6.13,0,0,0,1.27-.93l1.11,1.12A6.6,6.6,0,0,1,121.3,57.36Z"/><path class="cls-1" d="M131.54,48.4h1.87l-4.07,9.87h-1.51l-4.08-9.87h1.9l3,7.53Z"/><path class="cls-1" d="M145.31,58.19h-1.73V54.32l-3.9-5.93h2l2.75,4.34,2.76-4.34h2l-3.89,5.9Z"/><path class="cls-1" d="M158.4,56a3.83,3.83,0,0,1-.83,1.22,4,4,0,0,1-1.25.84,4.22,4.22,0,0,1-3.15,0,3.8,3.8,0,0,1-1.24-.83,3.87,3.87,0,0,1-.82-1.21,3.9,3.9,0,0,1,0-3,3.87,3.87,0,0,1,.83-1.23,4,4,0,0,1,1.24-.84,4.08,4.08,0,0,1,1.58-.31,4,4,0,0,1,1.57.3,3.85,3.85,0,0,1,1.25.83A3.91,3.91,0,0,1,158.4,53a3.9,3.9,0,0,1,0,3Zm-1.58-2.39a2.42,2.42,0,0,0-.47-.77,2,2,0,0,0-.71-.51,2.06,2.06,0,0,0-.91-.19,2.09,2.09,0,0,0-.91.19,2,2,0,0,0-.7.51,2.18,2.18,0,0,0-.45.75,2.73,2.73,0,0,0-.15.92,2.69,2.69,0,0,0,.17.93,2.37,2.37,0,0,0,.47.76,2.3,2.3,0,0,0,.71.51,2.18,2.18,0,0,0,.89.19,2.14,2.14,0,0,0,1.63-.7,2.35,2.35,0,0,0,.44-.75,2.65,2.65,0,0,0,0-1.84Z"/><path class="cls-1" d="M166.19,57a2.05,2.05,0,0,1-.58.72,2.69,2.69,0,0,1-.88.44,4.09,4.09,0,0,1-1.08.14A4.83,4.83,0,0,1,162,58a5.1,5.1,0,0,1-1.52-.82l.75-1.15a4.69,4.69,0,0,0,1.23.68,3.49,3.49,0,0,0,1.2.23,1.38,1.38,0,0,0,.84-.22.68.68,0,0,0,.3-.58v0a.52.52,0,0,0-.13-.36,1.32,1.32,0,0,0-.36-.28,4.75,4.75,0,0,0-.54-.2l-.62-.19-.82-.28a3.09,3.09,0,0,1-.74-.4,1.94,1.94,0,0,1-.54-.6,1.75,1.75,0,0,1-.21-.89v0a2.23,2.23,0,0,1,.2-.94,2.06,2.06,0,0,1,.56-.71,2.43,2.43,0,0,1,.84-.45,3.42,3.42,0,0,1,1-.16,4.62,4.62,0,0,1,1.41.23,5.24,5.24,0,0,1,1.31.61l-.68,1.21a5,5,0,0,0-1.07-.51,3,3,0,0,0-1-.19,1.21,1.21,0,0,0-.76.21.63.63,0,0,0-.28.53v0a.49.49,0,0,0,.14.34,1.54,1.54,0,0,0,.37.27,4.65,4.65,0,0,0,.54.22c.2.07.4.14.62.2l.81.3a3.52,3.52,0,0,1,.74.41,2,2,0,0,1,.54.59,1.66,1.66,0,0,1,.21.86v0A2.32,2.32,0,0,1,166.19,57Z"/><path class="cls-1" d="M170.53,58.17h-1.71V48h1.71v4a5,5,0,0,1,.4-.51,2.88,2.88,0,0,1,.5-.41,2.26,2.26,0,0,1,.63-.29,2.67,2.67,0,0,1,.78-.11,2.49,2.49,0,0,1,1.94.77,3,3,0,0,1,.68,2.07v4.7h-1.71V54a1.94,1.94,0,0,0-.42-1.34,1.46,1.46,0,0,0-1.15-.47,1.6,1.6,0,0,0-1.2.49,1.89,1.89,0,0,0-.45,1.34Z"/><path class="cls-1" d="M178.22,49.64V48h1.83v1.61Zm.08,8.52V50.77H180v7.39Z"/><path class="cls-1" d="M184.61,58.16H182.9V50.77h1.71v1.16a6.12,6.12,0,0,1,.39-.5,3,3,0,0,1,.51-.41,2.34,2.34,0,0,1,.62-.29,2.37,2.37,0,0,1,.78-.11,2.44,2.44,0,0,1,1.94.77,3,3,0,0,1,.69,2.07v4.7h-1.71V54a2,2,0,0,0-.41-1.33,1.48,1.48,0,0,0-1.16-.47,1.53,1.53,0,0,0-1.19.49,1.85,1.85,0,0,0-.46,1.34Z"/><path class="cls-1" d="M199.46,56A3.93,3.93,0,0,1,197.38,58a4.12,4.12,0,0,1-1.58.31,4,4,0,0,1-1.56-.3,3.85,3.85,0,0,1-1.25-.83,3.8,3.8,0,0,1-.82-1.22,3.7,3.7,0,0,1-.29-1.49,3.78,3.78,0,0,1,.29-1.5,4,4,0,0,1,.83-1.23,3.93,3.93,0,0,1,1.25-.84,4.19,4.19,0,0,1,3.14,0,3.74,3.74,0,0,1,1.25.83,3.64,3.64,0,0,1,.82,1.22,3.9,3.9,0,0,1,0,3Zm-1.58-2.4a2.66,2.66,0,0,0-.46-.76,2.33,2.33,0,0,0-.72-.52,2.21,2.21,0,0,0-.91-.18,2.12,2.12,0,0,0-.91.19,2.07,2.07,0,0,0-.7.51,2.34,2.34,0,0,0-.45.75,2.71,2.71,0,0,0-.15.91,2.6,2.6,0,0,0,.17.93,2.24,2.24,0,0,0,1.18,1.28,2.2,2.2,0,0,0,.9.19,2.26,2.26,0,0,0,.92-.19,2.14,2.14,0,0,0,.7-.52,2.23,2.23,0,0,0,.45-.74,2.82,2.82,0,0,0,.15-.92A2.6,2.6,0,0,0,197.88,53.55Z"/><path class="cls-1" d="M216.66,58.13h-1.82l-1-2.36h-4.63l-1,2.37h-1.76l4.3-9.87h1.6Zm-5.15-7.81-1.67,3.93h3.37Z"/><path class="cls-1" d="M226,55.93a3.94,3.94,0,0,1-.83,1.22,4,4,0,0,1-1.25.84,4.22,4.22,0,0,1-3.15,0,3.83,3.83,0,0,1-2.06-2,3.71,3.71,0,0,1-.3-1.49,3.79,3.79,0,0,1,.3-1.5,3.91,3.91,0,0,1,.83-1.24,4,4,0,0,1,1.24-.83,4.08,4.08,0,0,1,1.58-.31,4,4,0,0,1,1.57.3,3.85,3.85,0,0,1,1.25.83,3.88,3.88,0,0,1,.82,4.22Zm-1.58-2.4a2.37,2.37,0,0,0-.47-.76,2.18,2.18,0,0,0-.71-.52,2.21,2.21,0,0,0-.91-.18,2.24,2.24,0,0,0-.91.18,2.14,2.14,0,0,0-.7.52,2.18,2.18,0,0,0-.45.75,2.71,2.71,0,0,0-.15.91,2.6,2.6,0,0,0,.17.93,2.24,2.24,0,0,0,1.18,1.28,2.18,2.18,0,0,0,.89.19,2.27,2.27,0,0,0,.93-.19,2.14,2.14,0,0,0,.7-.52,2.23,2.23,0,0,0,.45-.74,2.82,2.82,0,0,0,.15-.92A2.6,2.6,0,0,0,224.44,53.53Z"/><path class="cls-1" d="M232.69,58.33a6.82,6.82,0,0,1-.46,1,2.42,2.42,0,0,1-.54.63,1.63,1.63,0,0,1-.64.36,2.46,2.46,0,0,1-.8.11,3.35,3.35,0,0,1-.94-.12,4.05,4.05,0,0,1-.81-.33l.58-1.27a2.91,2.91,0,0,0,.48.21,1.7,1.7,0,0,0,.51.07,1,1,0,0,0,.6-.18,1.68,1.68,0,0,0,.45-.67L228,50.73h1.81l2.1,5.49,1.92-5.49h1.76Z"/><path class="cls-1" d="M242.31,58.11V57.2a3.2,3.2,0,0,1-1,.76,3.11,3.11,0,0,1-1.43.31,3.38,3.38,0,0,1-1-.15,2.62,2.62,0,0,1-.83-.43,2,2,0,0,1-.57-.72,2.05,2.05,0,0,1-.22-1v0a2.32,2.32,0,0,1,.22-1.05,2,2,0,0,1,.62-.74,2.65,2.65,0,0,1,1-.44,4.46,4.46,0,0,1,1.19-.15,7.25,7.25,0,0,1,1.14.08,8.07,8.07,0,0,1,.91.22V53.7a1.47,1.47,0,0,0-.47-1.17,2,2,0,0,0-1.35-.41,4.2,4.2,0,0,0-1.12.13,5.91,5.91,0,0,0-1,.34l-.46-1.36a7.29,7.29,0,0,1,1.26-.45,6.33,6.33,0,0,1,1.55-.17,3.27,3.27,0,0,1,2.45.82,3.15,3.15,0,0,1,.8,2.3v4.38Zm0-3.13a3.56,3.56,0,0,0-.77-.21,4.59,4.59,0,0,0-.93-.09,2.18,2.18,0,0,0-1.24.31,1,1,0,0,0-.45.88v0a.91.91,0,0,0,.41.81,1.77,1.77,0,0,0,1,.28,2.35,2.35,0,0,0,.77-.11,2.06,2.06,0,0,0,.63-.31,1.6,1.6,0,0,0,.41-.49,1.4,1.4,0,0,0,.15-.64Z"/><path class="cls-1" d="M253.91,50.92a2.81,2.81,0,0,1,1.45-.36,2.49,2.49,0,0,1,1.91.73,3,3,0,0,1,.68,2.09V58.1h-1.71V53.91a2,2,0,0,0-.39-1.34,1.38,1.38,0,0,0-1.11-.46,1.49,1.49,0,0,0-1.13.47,1.93,1.93,0,0,0-.44,1.36V58.1h-1.7V53.9a2,2,0,0,0-.39-1.33,1.39,1.39,0,0,0-1.1-.46,1.47,1.47,0,0,0-1.14.49,2,2,0,0,0-.43,1.36v4.15H246.7V50.72h1.7v1.13a4.54,4.54,0,0,1,.39-.48,2.73,2.73,0,0,1,.48-.41,2.14,2.14,0,0,1,.61-.29,2.65,2.65,0,0,1,.77-.11,2.43,2.43,0,0,1,1.35.36,2.33,2.33,0,0,1,.84.95A3.82,3.82,0,0,1,253.91,50.92Z"/><path class="cls-1" d="M265.22,58.09v-.91a3.05,3.05,0,0,1-1,.76,3,3,0,0,1-1.43.31,3.33,3.33,0,0,1-1-.15,2.34,2.34,0,0,1-.83-.43,2,2,0,0,1-.79-1.7v0a2.32,2.32,0,0,1,.22-1,2.12,2.12,0,0,1,.62-.74,2.86,2.86,0,0,1,.95-.44,4.59,4.59,0,0,1,1.2-.15,7.25,7.25,0,0,1,1.14.08,6.24,6.24,0,0,1,.9.23v-.19a1.44,1.44,0,0,0-.47-1.17,2,2,0,0,0-1.35-.41,4.72,4.72,0,0,0-1.12.13,7.27,7.27,0,0,0-1,.34l-.46-1.36a7.29,7.29,0,0,1,1.26-.45,6.27,6.27,0,0,1,1.55-.17,3.27,3.27,0,0,1,2.45.82,3.15,3.15,0,0,1,.8,2.3v4.38Zm0-3.13a3.46,3.46,0,0,0-.76-.21,4.6,4.6,0,0,0-.93-.08,2.24,2.24,0,0,0-1.25.3,1,1,0,0,0-.44.89v0a.91.91,0,0,0,.41.81,1.79,1.79,0,0,0,1,.28,2.45,2.45,0,0,0,.78-.12,2.06,2.06,0,0,0,.63-.31,1.6,1.6,0,0,0,.41-.49,1.5,1.5,0,0,0,.14-.64Z"/><path class="cls-3" d="M262.89,14.3a8.71,8.71,0,0,1-1.36.7,8.44,8.44,0,0,1-1.57.47,9.14,9.14,0,0,1-1.76.17,7.68,7.68,0,0,1-3-.55,6.65,6.65,0,0,1-3.76-3.81,7.65,7.65,0,0,1-.52-2.86,7.3,7.3,0,0,1,.53-2.8A7,7,0,0,1,253,3.31a7.15,7.15,0,0,1,5.2-2.15,9.52,9.52,0,0,1,1.67.13,8.06,8.06,0,0,1,1.39.37,7.52,7.52,0,0,1,1.21.59,8.25,8.25,0,0,1,1.11.81L262,4.92a9.29,9.29,0,0,0-.82-.62,5.33,5.33,0,0,0-.88-.47,5.17,5.17,0,0,0-1-.3,6.47,6.47,0,0,0-1.21-.11,4.15,4.15,0,0,0-1.79.39,4.37,4.37,0,0,0-1.44,1.07,5,5,0,0,0-1,1.59,5.12,5.12,0,0,0-.35,1.92,5.64,5.64,0,0,0,.34,2A4.49,4.49,0,0,0,256.33,13a4.88,4.88,0,0,0,1.95.38,6,6,0,0,0,1.87-.29,5.25,5.25,0,0,0,1.51-.78V9.72h-3.58V7.58h6v5.88A11.77,11.77,0,0,1,262.89,14.3Z"/><path class="cls-3" d="M274.88,4.84h2.44V15.4h-2.44V13.74a5.47,5.47,0,0,1-1.3,1.33,3.35,3.35,0,0,1-2,.55,3.53,3.53,0,0,1-2.77-1.1,4.29,4.29,0,0,1-1-3V4.84h2.44v6a2.79,2.79,0,0,0,.58,1.9,2.07,2.07,0,0,0,1.66.67,2.22,2.22,0,0,0,1.7-.69,2.66,2.66,0,0,0,.66-1.92Z"/><path class="cls-3" d="M281.4,3.22V.92H284v2.3Zm.1,12.18V4.84h2.44V15.4Z"/><path class="cls-3" d="M291,12.1a1.31,1.31,0,0,0,.34,1,1.34,1.34,0,0,0,1,.31,3.31,3.31,0,0,0,1.5-.36v2a4.39,4.39,0,0,1-1,.4,4.82,4.82,0,0,1-1.2.14,4.41,4.41,0,0,1-1.23-.16,2.57,2.57,0,0,1-1-.52,2.4,2.4,0,0,1-.63-1,4.24,4.24,0,0,1-.22-1.48V6.9h-1.34V4.84h1.34V1.94H291v2.9h2.84V6.9H291Z"/><path class="cls-3" d="M303.74,15.4V14.1a4.29,4.29,0,0,1-3.42,1.52,4.82,4.82,0,0,1-1.44-.21,3.54,3.54,0,0,1-1.19-.62,2.94,2.94,0,0,1-.82-1,3,3,0,0,1-.31-1.41v0a3.25,3.25,0,0,1,.32-1.5,2.86,2.86,0,0,1,.89-1.06,4,4,0,0,1,1.36-.63,6.57,6.57,0,0,1,1.71-.21,9.45,9.45,0,0,1,1.63.12,11,11,0,0,1,1.29.32V9.1a2.13,2.13,0,0,0-.67-1.68,2.85,2.85,0,0,0-1.93-.58,6.41,6.41,0,0,0-1.6.18,10.33,10.33,0,0,0-1.42.48l-.66-1.94a10.42,10.42,0,0,1,1.8-.64,8.86,8.86,0,0,1,2.22-.24A4.7,4.7,0,0,1,305,5.85a4.52,4.52,0,0,1,1.14,3.29V15.4Zm.06-4.48a6.28,6.28,0,0,0-1.09-.3,7.15,7.15,0,0,0-1.33-.12,3.12,3.12,0,0,0-1.78.44A1.42,1.42,0,0,0,299,12.2v0a1.3,1.3,0,0,0,.59,1.16,2.48,2.48,0,0,0,1.45.4,3.59,3.59,0,0,0,1.11-.16,3.1,3.1,0,0,0,.89-.45,2.08,2.08,0,0,0,.59-.7,2,2,0,0,0,.21-.91Z"/><path class="cls-3" d="M312.46,15.4H310V4.84h2.44V7.22a4.57,4.57,0,0,1,1.42-1.92,3.39,3.39,0,0,1,2.32-.66V7.2h-.14a4,4,0,0,0-1.46.26,3,3,0,0,0-1.14.78,3.48,3.48,0,0,0-.74,1.31,5.7,5.7,0,0,0-.26,1.83Z"/></g></g></svg>