<?xml version="1.0" encoding="utf-8"?>
<!-- Generator: Adobe Illustrator 26.5.0, SVG Export Plug-In . SVG Version: 6.00 Build 0)  -->
<svg version="1.1" id="レイヤー_1" xmlns="http://www.w3.org/2000/svg" xmlns:xlink="http://www.w3.org/1999/xlink" x="0px"
	 y="0px" viewBox="0 0 174.1 21.5" style="enable-background:new 0 0 174.1 21.5;" xml:space="preserve">
<style type="text/css">
	.st0{fill:#FF2291;}
</style>
<path class="st0" d="M7.6,0.3c0.1-0.1,0.2-0.1,0.3-0.1h3.5c0.1,0,0.2,0,0.2,0.1c0.1,0.1,0.1,0.2,0.1,0.3v20.3c0,0.1,0,0.2-0.1,0.3
	c-0.1,0.1-0.2,0.1-0.2,0.1H7.9c-0.2,0-0.3-0.1-0.4-0.3c0,0,0,0,0,0v-8.2c0-0.1,0-0.1-0.1-0.1c0,0,0,0,0,0h-3c-0.1,0-0.1,0-0.2,0.1
	c0,0,0,0,0,0v8.2c0,0.1,0,0.2-0.1,0.3c-0.1,0.1-0.2,0.1-0.3,0.1H0.4c-0.1,0-0.2,0-0.3-0.1C0,21.1,0,21,0,20.9V0.6
	c0-0.1,0-0.2,0.1-0.3c0.1-0.1,0.2-0.1,0.3-0.1h3.5c0.1,0,0.2,0,0.3,0.1c0.1,0.1,0.1,0.2,0.1,0.3v8.2c0,0.1,0,0.1,0.1,0.1
	c0,0,0,0,0,0h3c0.1,0,0.1,0,0.2-0.1c0,0,0,0,0,0V0.6C7.5,0.5,7.6,0.4,7.6,0.3z"/>
<path class="st0" d="M16.1,21.1C16,21.1,16,21,16,20.9V0.6c0-0.1,0-0.2,0.1-0.2c0.1-0.1,0.2-0.1,0.3-0.1h3.5c0.1,0,0.2,0,0.2,0.1
	c0.1,0.1,0.1,0.2,0.1,0.2v20.3c0,0.1,0,0.2-0.1,0.3c-0.1,0.1-0.2,0.1-0.2,0.1h-3.5C16.3,21.2,16.2,21.2,16.1,21.1z"/>
<path class="st0" d="M36.4,0.3c0.1,0.1,0.1,0.2,0.1,0.3v2.9c0,0.1,0,0.2-0.1,0.3c-0.1,0.1-0.2,0.1-0.2,0.1h-3.8
	c-0.1,0-0.1,0-0.2,0.1c0,0,0,0,0,0v16.9c0,0.1,0,0.2-0.1,0.3c-0.1,0.1-0.2,0.1-0.2,0.1h-3.5c-0.2,0-0.3-0.1-0.4-0.3c0,0,0,0,0,0V4
	c0-0.1,0-0.1-0.1-0.2c0,0,0,0,0,0h-3.6c-0.2,0-0.3-0.1-0.4-0.3c0,0,0,0,0,0V0.6c0-0.1,0-0.2,0.1-0.3c0.1-0.1,0.2-0.1,0.3-0.1h11.9
	C36.2,0.2,36.3,0.3,36.4,0.3z"/>
<path class="st0" d="M41.5,19.9c-1.1-1.1-1.7-2.7-1.7-4.3V5.9c-0.1-1.6,0.5-3.2,1.7-4.3c1.2-1.1,2.8-1.7,4.4-1.6
	c1.6-0.1,3.2,0.5,4.4,1.6c1.2,1.1,1.8,2.7,1.7,4.3v9.6c0.1,1.6-0.5,3.2-1.7,4.3c-1.2,1.1-2.8,1.7-4.4,1.6
	C44.3,21.6,42.7,21,41.5,19.9z M47.2,17.3c0.4-0.4,0.5-1,0.5-1.6v-10c0-0.6-0.2-1.1-0.5-1.5c-0.3-0.4-0.8-0.6-1.3-0.6
	c-0.5,0-1,0.2-1.3,0.6c-0.4,0.4-0.6,1-0.5,1.6v10c0,0.6,0.1,1.1,0.5,1.5c0.3,0.4,0.8,0.6,1.3,0.6C46.4,17.9,46.9,17.7,47.2,17.3z"/>
<path class="st0" d="M63.8,20.9l-2.3-8.3c0-0.1-0.1-0.1-0.2-0.1h-1c-0.1,0-0.1,0-0.2,0.1c0,0,0,0,0,0v8.2c0,0.1,0,0.2-0.1,0.3
	c-0.1,0.1-0.2,0.1-0.2,0.1h-3.5c-0.2,0-0.3-0.1-0.4-0.3c0,0,0,0,0,0V0.6c0-0.1,0-0.2,0.1-0.3c0.1-0.1,0.2-0.1,0.3-0.1h6.1
	c1,0,2.1,0.3,2.9,0.8c0.9,0.5,1.6,1.3,2,2.2c0.5,1,0.8,2.2,0.7,3.3c0,1.1-0.2,2.1-0.7,3.1c-0.4,0.9-1.1,1.6-1.9,2.1
	c0,0-0.1,0-0.1,0.1c0,0,0,0.1,0,0.1l2.8,8.9v0.1c0,0.2-0.1,0.3-0.3,0.3h-3.6C64,21.3,63.8,21.1,63.8,20.9z M60.1,4v5.1
	c0,0.1,0,0.1,0.1,0.1c0,0,0,0,0,0h1.3c0.6,0,1.2-0.3,1.5-0.7c0.4-0.6,0.6-1.3,0.6-2c0-0.7-0.2-1.4-0.6-2c-0.4-0.5-0.9-0.8-1.5-0.7
	h-1.3C60.2,3.8,60.1,3.9,60.1,4C60.1,4,60.1,4,60.1,4z"/>
<path class="st0" d="M71.7,21.1c-0.1-0.1-0.1-0.2-0.1-0.3V0.6c0-0.1,0-0.2,0.1-0.2c0.1-0.1,0.2-0.1,0.3-0.1h3.5c0.1,0,0.2,0,0.2,0.1
	c0.1,0.1,0.1,0.2,0.1,0.3v20.3c0,0.1,0,0.2-0.1,0.3c-0.1,0.1-0.2,0.1-0.2,0.1H72C71.9,21.3,71.8,21.2,71.7,21.1z"/>
<path class="st0" d="M89,19.9c-1.1-1.1-1.7-2.6-1.6-4.1V5.7c-0.1-1.5,0.5-3,1.6-4.1c2.5-2.1,6.2-2.1,8.7,0c1.1,1.1,1.7,2.6,1.7,4.1
	v1.1c0,0.1,0,0.2-0.1,0.3c-0.1,0.1-0.2,0.1-0.2,0.1h-3.5c-0.2,0-0.3-0.1-0.4-0.3c0,0,0,0,0,0V5.6c0-0.5-0.1-1-0.5-1.5
	c-0.3-0.4-0.8-0.6-1.3-0.6c-0.5,0-0.9,0.2-1.3,0.6c-0.3,0.4-0.5,0.9-0.5,1.4v10.2c0,0.5,0.1,1,0.5,1.5c0.3,0.4,0.8,0.6,1.3,0.5
	c0.5,0,1-0.2,1.3-0.5c0.3-0.4,0.5-0.9,0.5-1.5v-2.4c0-0.1,0-0.1-0.1-0.1c0,0,0,0,0,0h-1.3c-0.2,0-0.3-0.1-0.4-0.3c0,0,0,0,0,0v-2.7
	c0-0.1,0-0.2,0.1-0.2c0.1-0.1,0.2-0.1,0.3-0.1H99c0.2,0,0.4,0.2,0.4,0.4v5.6c0.1,1.5-0.5,3.1-1.7,4.1C95.2,22,91.6,22,89,19.9
	L89,19.9z"/>
<path class="st0" d="M104.6,19.9c-1.1-1.1-1.7-2.7-1.6-4.3V5.9c-0.1-1.6,0.5-3.2,1.7-4.3c2.5-2.2,6.3-2.2,8.8,0
	c1.1,1.1,1.7,2.7,1.7,4.3v9.6c0.1,1.6-0.5,3.2-1.7,4.3C110.9,22,107.2,22,104.6,19.9L104.6,19.9z M110.4,17.3c0.4-0.4,0.5-1,0.5-1.6
	v-10c0-0.6-0.2-1.1-0.5-1.5c-0.3-0.4-0.8-0.6-1.3-0.6c-0.5,0-1,0.2-1.3,0.6c-0.3,0.4-0.5,1-0.5,1.5v10c0,0.6,0.1,1.1,0.5,1.6
	c0.3,0.4,0.8,0.6,1.3,0.6C109.6,17.9,110.1,17.7,110.4,17.3z"/>
<path class="st0" d="M131,0.3c0.1,0.1,0.1,0.2,0.1,0.3v2.9c0,0.1,0,0.2-0.1,0.3c-0.1,0.1-0.2,0.1-0.2,0.1H127c-0.1,0-0.1,0-0.2,0.1
	c0,0,0,0,0,0v16.9c0,0.1,0,0.2-0.1,0.3c-0.1,0.1-0.2,0.1-0.2,0.1H123c-0.2,0-0.3-0.1-0.4-0.3c0,0,0,0,0,0V4c0-0.1,0-0.1-0.1-0.2
	c0,0,0,0,0,0h-3.6c-0.2,0-0.3-0.1-0.4-0.3c0,0,0,0,0,0V0.6c0-0.1,0-0.2,0.1-0.2c0.1-0.1,0.2-0.1,0.3-0.1h11.9
	C130.8,0.2,130.9,0.3,131,0.3z"/>
<path class="st0" d="M136.1,19.9c-1.1-1.1-1.7-2.7-1.6-4.3V5.9c-0.1-1.6,0.5-3.2,1.6-4.3c2.5-2.2,6.3-2.2,8.8,0
	c1.1,1.1,1.7,2.7,1.7,4.3v9.6c0.1,1.6-0.5,3.2-1.7,4.3C142.3,22,138.6,22,136.1,19.9z M141.8,17.3c0.4-0.4,0.5-1,0.5-1.6v-10
	c0-0.6-0.2-1.1-0.5-1.5c-0.3-0.4-0.8-0.6-1.4-0.6c-0.5,0-1,0.2-1.3,0.6c-0.3,0.4-0.5,1-0.5,1.5v10c0,0.6,0.1,1.1,0.5,1.6
	c0.3,0.4,0.8,0.6,1.3,0.6C141,17.9,141.5,17.7,141.8,17.3z"/>
<path class="st0" d="M158.1,0.3c0.1-0.1,0.2-0.1,0.3-0.1h3.5c0.1,0,0.2,0,0.2,0.1c0.1,0.1,0.1,0.2,0.1,0.3v20.3c0,0.1,0,0.2-0.1,0.3
	c-0.1,0.1-0.2,0.1-0.2,0.1h-3.5c-0.2,0-0.3-0.1-0.4-0.3c0,0,0,0,0,0v-8.2c0-0.1,0-0.1-0.1-0.1c0,0,0,0,0,0h-3c-0.1,0-0.1,0-0.1,0.1
	c0,0,0,0,0,0v8.2c0,0.1,0,0.2-0.1,0.3c-0.1,0.1-0.2,0.1-0.2,0.1h-3.5c-0.2,0-0.3-0.1-0.4-0.3c0,0,0,0,0,0V0.6c0-0.1,0-0.2,0.1-0.2
	c0.1-0.1,0.2-0.1,0.3-0.1h3.5c0.1,0,0.2,0,0.2,0.1c0.1,0.1,0.1,0.2,0.1,0.2v8.2c0,0.1,0,0.1,0.1,0.1c0,0,0,0,0,0h3
	c0.1,0,0.1,0,0.1-0.1c0,0,0,0,0,0V0.6C158,0.5,158,0.4,158.1,0.3z"/>
</svg>
